<?xml version="1.0" standalone="no"?>
<!DOCTYPE svg PUBLIC "-//W3C//DTD SVG 20010904//EN"
 "http://www.w3.org/TR/2001/REC-SVG-20010904/DTD/svg10.dtd">
<svg version="1.0" xmlns="http://www.w3.org/2000/svg"
 width="958.000000pt" height="958.000000pt" viewBox="0 0 958.000000 958.000000"
 preserveAspectRatio="xMidYMid meet">
<metadata>
Created by potrace 1.14, written by Peter Selinger 2001-2017
</metadata>
<g transform="translate(0.000000,958.000000) scale(0.100000,-0.100000)"
fill="#000000" stroke="none">
<path d="M5018 9555 c-2 -2 -97 -6 -213 -9 -258 -7 -312 -11 -350 -23 -17 -6
-39 -7 -50 -3 -17 6 -370 6 -370 -1 0 -4 -89 -9 -130 -8 -22 0 -80 0 -130 0
-49 -1 -124 -1 -165 0 -107 2 -179 -1 -333 -15 -26 -2 -49 -1 -52 4 -5 7 -250
4 -272 -4 -7 -3 -15 -1 -18 5 -4 5 -9 8 -13 5 -13 -8 -126 -17 -256 -22 -209
-7 -337 -13 -401 -19 -33 -3 -105 -7 -160 -8 -55 -1 -105 -6 -111 -9 -14 -9
-210 -20 -376 -20 -76 -1 -138 -4 -138 -8 0 -4 -6 -7 -12 -7 -7 -1 -38 -4 -68
-8 -30 -4 -73 -8 -95 -10 -22 -2 -40 -4 -40 -5 0 -1 -11 -3 -25 -4 -82 -9
-132 -17 -157 -28 -15 -6 -35 -12 -44 -13 -9 -1 -21 -5 -28 -9 -6 -4 -11 -3
-11 2 0 5 -31 -1 -68 -13 -38 -12 -79 -22 -93 -21 -13 1 -32 -5 -42 -13 -10
-9 -18 -11 -17 -6 4 20 -1 30 -8 18 -4 -7 -35 -14 -68 -16 -67 -5 -90 -12 -98
-33 -3 -9 -11 -12 -16 -9 -6 4 -16 2 -23 -3 -7 -5 -25 -12 -40 -16 -15 -4 -25
-11 -22 -16 3 -5 -8 -23 -25 -40 -16 -17 -30 -27 -30 -23 0 4 -5 0 -11 -9 -5
-10 -17 -18 -24 -18 -8 0 -15 -4 -15 -9 0 -5 -13 -14 -30 -21 -16 -7 -27 -17
-23 -23 4 -6 0 -8 -11 -4 -9 4 -15 3 -12 -2 7 -11 -28 -43 -37 -34 -4 3 -7 0
-7 -7 0 -7 -3 -11 -6 -7 -4 3 -22 -13 -41 -36 -19 -23 -41 -50 -49 -60 -9 -11
-16 -27 -17 -38 -1 -10 -5 -19 -10 -19 -4 0 -5 -4 -2 -10 3 -5 2 -10 -4 -10
-6 0 -8 -6 -5 -13 3 -8 0 -27 -6 -43 -8 -20 -8 -30 -1 -32 6 -2 11 -8 11 -13
0 -6 -6 -7 -12 -3 -10 5 -10 4 -1 -6 10 -11 9 -16 -4 -25 -17 -13 -18 -26 -23
-350 -1 -60 -7 -116 -12 -123 -10 -11 -11 -150 -3 -242 1 -19 -1 -39 -5 -45
-14 -19 -26 -90 -20 -120 3 -16 5 -66 5 -110 0 -44 4 -83 10 -87 7 -5 7 -8 0
-8 -6 0 -9 -53 -8 -142 3 -126 7 -203 13 -203 8 0 6 -43 -2 -59 -14 -25 -19
-66 -9 -66 9 0 7 -37 -2 -46 -4 -4 -2 -13 4 -21 6 -7 7 -13 2 -13 -5 0 -9 -9
-9 -20 0 -11 3 -20 7 -20 4 0 7 -25 6 -55 -1 -30 -5 -55 -9 -55 -4 0 -5 -8 -3
-19 13 -66 14 -91 5 -91 -7 0 -7 -6 -1 -18 6 -12 5 -23 -5 -36 -7 -10 -10 -24
-7 -30 10 -16 12 -89 12 -391 0 -104 3 -217 7 -250 4 -33 6 -114 6 -180 -2
-246 -2 -311 4 -359 3 -26 2 -46 -3 -43 -4 3 -9 -7 -11 -21 -6 -62 -9 -678 -4
-687 4 -5 7 -17 8 -25 0 -8 5 -33 11 -55 24 -92 35 -154 38 -225 4 -89 7 -103
24 -124 7 -9 11 -16 8 -16 -4 0 4 -16 17 -35 14 -20 23 -47 22 -64 -1 -16 1
-28 5 -25 7 4 18 -20 23 -50 6 -31 38 -133 46 -148 6 -10 10 -25 10 -35 0 -9
8 -35 19 -57 10 -23 25 -56 32 -74 8 -17 18 -32 22 -32 5 0 6 -4 2 -9 -3 -5
-1 -12 5 -16 6 -4 8 -11 5 -16 -4 -5 0 -12 9 -15 8 -3 12 -12 9 -20 -3 -8 0
-14 6 -14 14 0 108 -100 94 -100 -5 0 -1 -5 7 -10 8 -5 15 -15 15 -22 1 -7 7
-12 14 -10 8 2 20 -6 28 -18 8 -11 19 -18 24 -15 5 4 9 -1 9 -9 0 -9 5 -16 10
-16 6 0 10 -6 10 -13 0 -8 11 -24 25 -37 13 -12 22 -27 19 -31 -3 -5 -1 -9 5
-9 16 0 51 -42 44 -53 -3 -6 -1 -7 4 -4 6 4 28 -13 48 -38 21 -24 46 -47 56
-50 11 -4 19 -13 19 -21 0 -8 7 -14 15 -14 8 0 15 -4 15 -10 0 -5 6 -10 13
-10 7 0 24 -10 37 -23 14 -12 26 -20 28 -18 4 4 58 -16 94 -35 15 -8 30 -15
33 -14 3 0 21 -7 41 -15 20 -8 44 -15 53 -15 9 0 41 -7 71 -15 99 -28 131 -33
225 -39 28 -1 64 -6 80 -9 17 -4 50 -9 75 -13 24 -3 49 -8 54 -11 21 -13 238
-19 257 -7 8 4 9 3 5 -4 -4 -7 -3 -12 3 -12 5 0 13 5 16 10 4 7 11 7 18 2 7
-5 31 -8 54 -7 28 2 43 -1 43 -8 0 -8 3 -7 9 2 7 10 13 11 30 1 16 -8 26 -8
35 -1 7 6 16 8 19 5 3 -4 41 -9 84 -11 82 -6 118 -19 154 -56 12 -12 20 -17
17 -12 -4 6 16 11 48 12 30 0 54 -2 54 -6 0 -4 7 -8 15 -8 8 0 12 4 9 9 -4 5
0 8 7 7 15 -2 43 6 74 23 24 13 153 19 161 7 2 -4 10 -6 17 -4 7 3 77 7 157 9
80 3 147 6 150 7 3 1 9 1 14 0 5 -1 31 -4 58 -6 27 -3 55 -8 61 -12 7 -5 98
-9 202 -9 105 -1 199 -4 210 -6 11 -3 24 0 28 6 6 8 10 7 14 -2 2 -6 9 -9 14
-6 6 3 17 0 26 -8 12 -9 15 -9 9 0 -10 16 0 15 29 -4 14 -9 25 -14 25 -11 0 3
12 0 26 -8 17 -9 35 -10 54 -5 16 5 31 6 34 2 3 -3 6 0 6 6 0 7 5 12 11 12 5
0 7 -5 3 -12 -4 -7 -3 -8 5 -4 6 4 18 1 26 -7 11 -12 40 -14 136 -12 88 2 138
-1 178 -12 35 -10 102 -16 181 -17 69 -1 130 -5 136 -8 6 -4 14 -4 18 0 4 4
44 8 89 8 45 1 137 5 204 8 67 3 124 2 127 -2 4 -7 108 -8 126 -1 6 2 -3 2
115 -5 55 -4 116 -10 135 -14 19 -3 40 -5 45 -4 14 2 58 -71 61 -103 2 -15 12
-45 23 -68 11 -22 18 -44 15 -49 -3 -4 0 -8 6 -8 6 0 8 -5 5 -10 -3 -5 -1 -10
4 -10 6 0 11 -7 11 -16 0 -9 5 -12 12 -8 6 4 8 3 5 -2 -3 -6 -2 -29 4 -52 5
-23 12 -59 15 -80 3 -20 8 -40 10 -43 2 -4 6 -28 9 -55 4 -26 9 -53 13 -58 7
-12 10 -25 14 -71 2 -16 7 -33 11 -36 4 -3 9 -16 10 -27 1 -12 4 -22 8 -22 4
0 9 -15 13 -32 3 -18 8 -44 12 -58 3 -14 6 -35 7 -47 1 -13 6 -23 11 -23 5 0
7 -3 4 -6 -8 -7 68 -155 84 -166 10 -6 10 -8 -1 -8 -9 0 -10 -4 -4 -13 6 -6
16 -29 23 -50 6 -20 19 -44 28 -53 8 -9 16 -26 17 -38 2 -11 8 -20 15 -18 8 2
11 -4 7 -19 -3 -11 -3 -19 0 -16 8 9 40 -27 35 -40 -2 -7 0 -13 6 -13 5 0 15
-15 23 -32 7 -18 15 -35 18 -38 3 -3 15 -21 25 -40 10 -19 26 -44 36 -55 35
-42 81 -125 75 -135 -3 -5 -1 -10 5 -10 6 0 9 -4 5 -9 -3 -5 -1 -12 4 -16 16
-9 41 -67 34 -78 -4 -6 -1 -7 7 -2 10 6 12 4 7 -8 -3 -10 -2 -17 3 -17 5 0 24
-22 42 -50 18 -27 36 -50 41 -50 4 0 5 -4 2 -10 -3 -5 1 -10 9 -10 9 0 16 -6
16 -14 0 -8 15 -31 34 -50 18 -20 31 -38 28 -41 -3 -3 0 -5 6 -5 7 0 11 -4 10
-9 -3 -8 44 -69 92 -118 14 -15 19 -23 11 -18 -15 9 20 -43 57 -83 12 -14 22
-29 22 -33 0 -5 10 -18 23 -30 12 -12 15 -18 7 -14 -8 4 0 -6 19 -24 19 -17
38 -31 43 -31 4 0 8 -7 8 -15 0 -8 6 -15 13 -15 7 0 19 -9 27 -20 8 -11 20
-20 28 -20 7 0 10 -4 7 -10 -3 -5 -2 -10 2 -10 5 0 25 -15 45 -32 78 -72 95
-84 146 -108 28 -14 52 -27 52 -31 0 -3 6 -6 13 -6 14 -1 80 -26 87 -33 13
-13 59 -29 98 -35 23 -4 48 -12 55 -19 7 -7 18 -11 25 -8 7 2 22 -4 33 -14 12
-11 19 -13 19 -5 0 8 6 7 16 -4 9 -9 23 -14 31 -11 8 3 11 2 8 -3 -3 -5 4 -12
15 -16 11 -3 20 -10 20 -15 0 -4 14 -13 30 -19 18 -6 28 -6 25 -1 -4 6 2 10
12 11 10 0 28 2 40 5 13 2 42 -9 72 -27 28 -17 62 -31 76 -31 14 0 25 -5 25
-9 0 -5 10 -3 23 5 12 8 35 14 52 14 33 -1 85 52 85 85 0 20 -79 99 -91 91 -4
-2 -9 2 -12 10 -3 7 -29 27 -59 44 -90 52 -124 89 -182 202 -19 36 -50 94 -70
130 -20 36 -39 72 -42 80 -4 8 -15 24 -25 36 -11 11 -20 32 -21 47 -1 15 -6
27 -10 27 -4 0 -6 8 -6 18 0 9 -5 31 -12 47 -7 17 -14 32 -15 35 0 3 -6 15
-13 27 -7 12 -11 26 -10 30 4 14 -26 103 -35 103 -5 0 -5 9 -2 20 4 11 2 20
-4 20 -6 0 -11 8 -11 18 0 10 -3 22 -7 26 -9 8 -13 28 -18 86 -2 24 -9 46 -15
48 -5 2 -8 8 -4 13 3 5 1 9 -4 9 -5 0 -8 14 -7 30 1 17 -3 37 -10 44 -15 15
-23 66 -12 82 4 7 -4 28 -17 47 -13 19 -22 38 -19 41 4 3 -2 15 -12 26 -9 10
-15 26 -12 34 4 9 2 18 -4 22 -6 3 -8 12 -5 19 3 8 0 15 -5 17 -5 2 -11 13
-12 26 0 12 -5 22 -9 22 -4 0 -8 6 -8 14 0 8 -4 16 -9 18 -5 1 -10 21 -12 43
-1 22 -5 44 -7 49 -2 4 -6 38 -8 75 -5 87 -6 91 -16 91 -5 0 -6 9 -3 20 3 11
3 20 -2 20 -4 0 -8 57 -7 128 0 70 -4 133 -9 139 -6 8 -6 13 0 13 5 0 9 22 8
49 -1 30 3 48 8 44 6 -4 8 3 5 15 -4 12 -2 22 3 22 5 0 8 3 7 8 -5 19 14 112
22 107 9 -5 15 23 11 47 0 5 4 8 10 8 6 0 9 6 6 13 -2 6 5 23 17 36 11 13 14
20 6 16 -8 -5 -5 4 8 19 12 16 19 32 16 37 -3 5 -1 9 3 9 5 0 9 10 10 22 1 11
8 25 15 29 7 5 9 9 4 9 -5 0 -3 7 4 15 6 8 8 20 4 26 -4 7 -3 9 3 6 6 -4 13 2
16 13 6 22 45 40 97 44 20 2 45 8 57 14 26 14 71 16 243 7 74 -4 140 -7 145
-6 6 1 51 3 100 5 89 4 168 11 255 22 25 3 51 6 58 7 6 0 12 5 12 10 0 6 3 7
7 4 3 -4 13 -1 21 6 13 10 14 9 8 -2 -6 -10 -4 -12 10 -7 25 7 68 15 124 22
62 8 81 11 110 19 14 3 30 7 35 8 6 2 16 7 24 11 10 7 12 6 6 -4 -6 -9 -4 -11
5 -5 7 4 31 9 54 10 22 2 42 8 44 13 2 8 12 8 28 2 19 -7 23 -7 18 2 -5 8 -2
9 9 5 10 -3 17 -2 17 4 0 6 4 8 9 4 5 -3 12 -1 16 5 4 6 10 8 15 5 5 -3 16 2
24 11 9 8 16 10 16 4 0 -7 6 -8 18 -2 9 5 25 8 34 7 10 -2 16 1 15 7 -2 11 79
59 87 51 3 -4 6 1 6 9 0 12 7 15 23 11 18 -4 19 -3 7 6 -16 11 -11 14 32 14 9
0 16 5 15 11 -1 6 12 17 28 26 17 8 46 36 65 63 19 27 41 55 48 63 7 8 11 14
7 14 -8 0 26 52 52 76 12 12 19 25 16 28 -4 3 -1 6 6 6 7 0 21 20 32 45 11 24
24 47 29 50 6 4 8 11 5 16 -4 5 -3 15 2 22 8 13 15 40 17 72 0 11 5 23 9 26 5
3 9 27 11 54 2 34 8 52 24 64 11 9 22 23 24 31 2 8 10 21 18 28 13 12 13 13 0
6 -8 -4 -5 4 7 17 18 20 20 28 11 37 -7 7 -8 12 -2 12 5 0 9 16 9 35 -1 20 2
38 7 41 5 3 5 10 1 16 -14 24 -6 95 19 155 19 46 25 85 32 178 2 28 7 58 10
67 13 29 13 53 2 60 -8 6 -7 8 1 8 9 0 10 7 3 24 -5 13 -6 27 -2 30 11 12 17
201 6 218 -3 4 -1 8 5 8 5 0 9 20 7 45 -1 24 1 42 6 39 4 -3 8 3 8 13 0 20 22
73 30 73 3 0 5 61 5 136 0 75 2 137 6 140 3 2 1 27 -4 56 -11 55 -17 488 -7
488 3 0 6 16 7 36 0 20 6 40 13 44 8 5 7 9 -6 14 -13 5 -14 10 -6 18 6 6 8 18
3 27 -7 14 -7 65 -1 81 1 3 2 8 1 13 0 4 2 7 7 7 4 0 7 54 7 120 1 66 -2 120
-6 120 -4 0 -7 78 -7 173 -1 163 -9 478 -13 505 -1 6 -5 12 -9 12 -3 0 -6 16
-5 35 1 20 -2 38 -6 41 -4 2 -6 11 -2 19 3 9 1 21 -5 28 -11 12 -9 177 2 195
3 5 2 12 -1 16 -4 4 -9 28 -10 54 -5 87 -10 129 -18 142 -5 9 -4 11 3 6 7 -4
12 -1 12 9 0 10 -5 13 -12 9 -6 -4 -8 -3 -5 3 3 5 7 28 8 51 2 23 5 42 8 42 6
0 13 57 15 123 1 20 4 37 7 37 3 0 5 12 5 28 -1 15 3 33 9 41 7 11 7 13 -3 7
-10 -6 -11 -2 -7 16 3 13 2 35 -4 49 -5 14 -6 32 -1 39 5 7 3 21 -3 31 -9 14
-9 21 0 30 8 8 9 18 2 31 -5 10 -6 18 -1 18 5 0 9 6 10 13 0 6 5 29 10 49 5
20 7 40 4 43 -3 3 -7 24 -10 47 -2 24 -7 45 -11 48 -12 8 -12 212 1 204 6 -4
6 0 -1 14 -8 15 -8 22 2 25 6 3 8 6 2 6 -5 1 -9 20 -9 43 1 24 -2 48 -5 53 -4
6 -9 30 -10 55 -2 25 -5 48 -8 52 -2 5 0 8 6 8 6 0 2 20 -9 45 -11 25 -20 47
-20 50 0 3 -1 6 -1 8 -1 1 -3 20 -4 42 -2 22 -6 54 -10 70 -4 17 -8 48 -10 70
-1 22 -6 49 -11 59 -6 15 -4 17 6 11 9 -5 11 -4 6 4 -4 6 -12 9 -17 6 -5 -4
-9 6 -9 20 0 36 -52 138 -89 174 -17 17 -31 35 -31 41 0 5 -7 10 -15 10 -8 0
-28 14 -45 31 -16 18 -30 28 -30 24 0 -4 -8 -1 -18 7 -23 20 -51 31 -87 32
-16 1 -36 5 -42 9 -8 5 -13 3 -13 -4 0 -7 -4 -8 -12 -2 -7 5 -22 9 -33 8 -11
0 -28 3 -39 8 -14 7 -16 6 -11 -4 5 -8 4 -10 -4 -5 -7 5 -42 10 -79 12 -86 5
-123 10 -144 19 -10 4 -18 3 -18 -1 0 -12 -73 -8 -98 5 -14 7 -23 8 -27 1 -4
-7 -14 -6 -28 2 -14 7 -103 13 -252 15 -126 2 -258 5 -292 5 -35 1 -63 4 -63
8 0 4 -6 7 -12 8 -7 0 -44 3 -83 6 -38 3 -101 8 -140 12 -107 10 -418 11 -437
2 -15 -7 -121 -10 -258 -7 -19 1 -91 0 -160 -1 -69 -1 -146 1 -172 4 -30 4
-48 3 -48 -3 0 -6 -7 -8 -14 -5 -8 3 -70 7 -138 9 -68 2 -129 4 -135 4 -25 2
-43 -2 -43 -10 0 -4 -17 -5 -37 -3 -21 2 -64 6 -96 9 -32 2 -62 7 -68 10 -5 4
-9 2 -9 -4 0 -5 -10 -8 -22 -6 -29 5 -105 14 -183 22 -33 3 -150 6 -260 6
-122 1 -203 6 -207 12 -6 7 -10 7 -15 0 -5 -6 -19 -10 -33 -8 -46 4 -319 11
-322 8z"/>
</g>
</svg>
