<svg xmlns="http://www.w3.org/2000/svg" xmlns:xlink="http://www.w3.org/1999/xlink" width="984" height="754" viewBox="0 0 984 754"><defs><clipPath id="b"><rect width="984" height="754"/></clipPath></defs><g id="a" clip-path="url(#b)"><rect width="984" height="754" fill="#f5f5f5"/><path d="M0,0H52" transform="translate(158.5 533.502)" fill="none" stroke="#7f7f7f" stroke-miterlimit="8" stroke-width="0.667" stroke-dasharray="2.667 2" fill-rule="evenodd"/><path d="M0,0H52" transform="translate(158.5 446.502)" fill="none" stroke="#7f7f7f" stroke-miterlimit="8" stroke-width="0.667" stroke-dasharray="2.667 2" fill-rule="evenodd"/><g transform="translate(-263 -197.5)"><path d="M54.5,72.736A5.236,5.236,0,0,1,59.736,67.5H167.264a5.236,5.236,0,0,1,5.236,5.236v45.528a5.236,5.236,0,0,1-5.236,5.236H59.736a5.236,5.236,0,0,1-5.236-5.236Z" transform="translate(287 200)" fill="#fff" stroke="#bf9000" stroke-miterlimit="8" stroke-width="1.333" fill-rule="evenodd"/><g transform="translate(287.783 201)"><text transform="translate(85.464 92)" font-size="11" font-family="Calibri-Bold, Calibri" font-weight="700"><tspan x="0" y="0">Talia Adams</tspan></text><text transform="translate(78.217 105)" font-size="11" font-family="Calibri"><tspan x="0" y="0">VP of Education</tspan></text></g><text transform="translate(500.5 292.5)" font-size="11" font-family="Calibri"><tspan x="-18.925" y="0">Monthly</tspan><tspan x="-20.84" y="13">Meetings</tspan></text></g><path d="M530.5,292.5v34" transform="translate(24 2)" fill="none" stroke="#7f7f7f" stroke-miterlimit="8" stroke-width="0.667" stroke-dasharray="2.667 2" fill-rule="evenodd"/><g transform="translate(-263 -198)"><path d="M218.5,202.643a5.142,5.142,0,0,1,5.143-5.143H332.358a5.142,5.142,0,0,1,5.142,5.143v44.715a5.142,5.142,0,0,1-5.142,5.142H223.643a5.142,5.142,0,0,1-5.143-5.142Z" transform="translate(287 200)" fill="#fff" stroke="#bf9000" stroke-miterlimit="8" stroke-width="1.333" fill-rule="evenodd"/><g transform="translate(287 200)"><text transform="translate(248.35 222)" font-size="11" font-family="Calibri-Bold, Calibri" font-weight="700"><tspan x="0" y="0">Owen Liggins</tspan></text><text transform="translate(253.43 235)" font-size="11" font-family="Calibri"><tspan x="0" y="0">CoS Officer</tspan></text></g><text transform="translate(685.529 422)" font-size="11" font-family="Calibri"><tspan x="-41.008" y="0">Monthly Meetings</tspan><tspan x="-11.94" y="13">(TBC)</tspan></text></g><path d="M589.5,363.5H655" transform="translate(24 2)" fill="none" stroke="#7f7f7f" stroke-miterlimit="8" stroke-width="0.667" stroke-dasharray="2.667 2" fill-rule="evenodd"/><path d="M471.5,332.578a6.078,6.078,0,0,1,6.077-6.078H583.423a6.078,6.078,0,0,1,6.077,6.078v52.845a6.077,6.077,0,0,1-6.077,6.077H477.577a6.077,6.077,0,0,1-6.077-6.077Z" transform="translate(24 2)" fill="#fff" stroke="#bf9000" stroke-miterlimit="8" stroke-width="1.333" fill-rule="evenodd"/><g transform="translate(22.678 3)"><text transform="translate(493.742 349)" font-size="11" font-family="Calibri-Bold, Calibri" font-weight="700"><tspan x="0" y="0">William Oldham</tspan></text><text transform="translate(490.322 362)" font-size="11" font-family="Calibri"><tspan x="0" y="0">Computer Science </tspan></text><text transform="translate(505.655 375)" font-size="11" font-family="Calibri"><tspan x="0" y="0">School Rep</tspan></text></g><path d="M0,0,773-.585" transform="translate(93.5 613.085)" fill="none" stroke="#7f7f7f" stroke-miterlimit="8" stroke-width="0.667" stroke-dasharray="2.667 2" fill-rule="evenodd"/><path d="M0-.034V-37.241" transform="translate(222.5 612.759) rotate(180)" fill="none" stroke="#7f7f7f" stroke-miterlimit="8" stroke-width="0.667" stroke-dasharray="2.667 2" fill-rule="evenodd"/><path d="M349.5,611.5v37.208" transform="translate(2 1.292)" fill="none" stroke="#7f7f7f" stroke-miterlimit="8" stroke-width="0.667" stroke-dasharray="2.667 2" fill-rule="evenodd"/><path d="M0,0V-219.306" transform="translate(554.5 395.5) rotate(180)" fill="none" stroke="#7f7f7f" stroke-miterlimit="8" stroke-width="0.667" stroke-dasharray="2.667 2" fill-rule="evenodd"/><path d="M721.5,611.5V649" transform="translate(16 1)" fill="none" stroke="#7f7f7f" stroke-miterlimit="8" stroke-width="0.667" stroke-dasharray="2.667 2" fill-rule="evenodd"/><path d="M844.5,610.5V648" transform="translate(22 2)" fill="none" stroke="#7f7f7f" stroke-miterlimit="8" stroke-width="0.667" stroke-dasharray="2.667 2" fill-rule="evenodd"/><path d="M245.5,290.5v34" transform="translate(24 4)" fill="none" stroke="#7f7f7f" stroke-miterlimit="8" stroke-width="0.667" stroke-dasharray="2.667 2" fill-rule="evenodd"/><path d="M278.5,254.5v37.241" transform="translate(24 2)" fill="none" stroke="#7f7f7f" stroke-miterlimit="8" stroke-width="0.667" stroke-dasharray="2.667 2" fill-rule="evenodd"/><path d="M73.5,292.5H529.225" transform="translate(26 2)" fill="none" stroke="#7f7f7f" stroke-miterlimit="8" stroke-width="0.667" stroke-dasharray="2.667 2" fill-rule="evenodd"/><path d="M863.5,286.5v37.241" transform="translate(38 2)" fill="none" stroke="#7f7f7f" stroke-miterlimit="8" stroke-width="0.667" stroke-dasharray="2.667 2" fill-rule="evenodd"/><path d="M863.5,369.5v37.241" transform="translate(38 2)" fill="none" stroke="#7f7f7f" stroke-miterlimit="8" stroke-width="0.667" stroke-dasharray="2.667 2" fill-rule="evenodd"/><path d="M.5,161.5H278.017" transform="translate(24 2)" fill="none" stroke="#7f7f7f" stroke-miterlimit="8" stroke-width="0.667" stroke-dasharray="2.667 2" fill-rule="evenodd"/><path d="M278.5,161.5v37.241" transform="translate(24 2)" fill="none" stroke="#7f7f7f" stroke-miterlimit="8" stroke-width="0.667" stroke-dasharray="2.667 2" fill-rule="evenodd"/><path d="M110.5,125.5v37.241" transform="translate(24 2)" fill="none" stroke="#7f7f7f" stroke-miterlimit="8" stroke-width="0.667" stroke-dasharray="2.667 2" fill-rule="evenodd"/><path d="M390.5,290.5v34" transform="translate(22 4)" fill="none" stroke="#7f7f7f" stroke-miterlimit="8" stroke-width="0.667" stroke-dasharray="2.667 2" fill-rule="evenodd"/><path d="M828.5,80.5h37" transform="translate(36 2)" fill="none" stroke="#7f7f7f" stroke-miterlimit="8" stroke-width="0.667" stroke-dasharray="2.667 2" fill-rule="evenodd"/><path d="M73.5,292.5v34" transform="translate(26 2)" fill="none" stroke="#7f7f7f" stroke-miterlimit="8" stroke-width="0.667" stroke-dasharray="2.667 2" fill-rule="evenodd"/><path d="M159.5,291.5V530.176" transform="translate(24 3)" fill="none" stroke="#7f7f7f" stroke-miterlimit="8" stroke-width="0.667" stroke-dasharray="2.667 2" fill-rule="evenodd"/><g transform="translate(-250 -198)"><path d="M647,16.885A4.934,4.934,0,0,1,651.981,12H927.539a4.934,4.934,0,0,1,4.981,4.885V36.115A4.934,4.934,0,0,1,927.539,41H651.981A4.934,4.934,0,0,1,647,36.115Z" transform="translate(286 200)" fill="#002060" fill-rule="evenodd"/><text transform="translate(999.352 231)" fill="#fff" font-size="13" font-family="Calibri-Bold, Calibri" font-weight="700"><tspan x="0" y="0">School of Computer Science</tspan></text></g><g transform="translate(-263 -197)"><path d="M16,22.885A4.725,4.725,0,0,1,20.548,18h579.9A4.725,4.725,0,0,1,605,22.885V42.115A4.725,4.725,0,0,1,600.452,47H20.548A4.725,4.725,0,0,1,16,42.115Z" transform="translate(282 193)" fill="#fff2cc" fill-rule="evenodd"/><text transform="translate(395 230)" font-size="13" font-family="Calibri-Bold, Calibri" font-weight="700"><tspan x="0" y="0">SU Organisation Chart for College of Science - School of Computer Science</tspan></text></g><text transform="translate(646.101 346)" font-size="11" font-family="Calibri"><tspan x="-18.721" y="0">Working</tspan><tspan x="-23.3" y="13">with SoCS </tspan></text><text transform="translate(399.699 586)" font-size="11" font-family="Calibri"><tspan x="0" y="0">Working with course reps across</tspan><tspan x="0" y="13">each course and year group</tspan></text><g transform="translate(-262 -201)"><rect width="435" height="23" transform="translate(347 465)" fill="#f5f5f5"/><text transform="translate(352 480)" font-size="11" font-family="Calibri"><tspan x="0" y="0">Working with School Rep Officers. </tspan><tspan y="0" font-family="Calibri-Bold, Calibri" font-weight="700">Note</tspan><tspan y="0">: All School reps also have dotted line to VP of Education</tspan></text></g><g transform="translate(-290 -203)"><rect width="250" height="22" transform="translate(300 338)" fill="#f5f5f5"/><text transform="translate(308 353)" font-size="11" font-family="Calibri"><tspan x="0" y="0">Working with Colleges and all reps (School &amp; Course)</tspan></text></g><g transform="translate(-263 -198)"><rect width="84" height="35" transform="translate(772 681)" fill="#f5f5f5"/><text transform="translate(814 696)" font-size="11" font-family="Calibri"><tspan x="-19.747" y="0">Daily rep</tspan><tspan x="-24.24" y="13">interaction</tspan></text></g><path d="M863.5,80.5V240.952" transform="translate(38 2)" fill="none" stroke="#7f7f7f" stroke-miterlimit="8" stroke-width="0.667" stroke-dasharray="2.667 2" fill-rule="evenodd"/><g transform="translate(-263 -198)"><path d="M803.5,409.707a4.208,4.208,0,0,1,4.207-4.207H921.293a4.208,4.208,0,0,1,4.207,4.207v36.586a4.208,4.208,0,0,1-4.207,4.207H807.707a4.208,4.208,0,0,1-4.207-4.207Z" transform="translate(300 200)" fill="#fff" stroke="#0070c0" stroke-miterlimit="8" stroke-width="1.333" fill-rule="evenodd"/><g transform="translate(298.001 200)"><text transform="translate(814.999 419)" font-size="11" font-family="Calibri-Bold, Calibri" font-weight="700"><tspan x="0" y="0">Dr Olivier Szymanezyk </tspan></text><text transform="translate(866.999 432)" font-size="11" font-family="Calibri"><tspan x="-46.597" y="0">Student Engagement</tspan><tspan x="-10.573" y="13">Lead</tspan></text></g><text transform="translate(1042.544 626)" font-size="11" font-family="Calibri"><tspan x="-16.417" y="0">Weekly</tspan><tspan x="-22.083" y="13">Meetings </tspan></text></g><g transform="translate(-263 -198)"><path d="M804.5,326.707a4.333,4.333,0,0,1,4.447-4.207H922.053a4.333,4.333,0,0,1,4.447,4.207v36.585a4.333,4.333,0,0,1-4.447,4.207H808.947a4.333,4.333,0,0,1-4.447-4.207Z" transform="translate(299 200)" fill="#fff" stroke="#0070c0" stroke-miterlimit="8" stroke-width="1.333" fill-rule="evenodd"/><g transform="translate(299.938 200)"><text transform="translate(820.562 336)" font-size="11" font-family="Calibri-Bold, Calibri" font-weight="700"><tspan x="0" y="0">Dr Chris Headleand</tspan></text><text transform="translate(865.062 349)" font-size="11" font-family="Calibri"><tspan x="-44.744" y="0">Director of Teaching</tspan><tspan x="-25.47" y="13">&amp; Learning </tspan></text></g><text transform="translate(1042.544 542)" font-size="11" font-family="Calibri"><tspan x="-16.417" y="0">Weekly</tspan><tspan x="-22.083" y="13">Meetings </tspan></text></g><g transform="translate(-263 -198)"><path d="M802.5,244.707a4.281,4.281,0,0,1,4.35-4.207h113.3a4.281,4.281,0,0,1,4.35,4.207v36.586a4.281,4.281,0,0,1-4.35,4.207H806.85a4.281,4.281,0,0,1-4.35-4.207Z" transform="translate(301 200)" fill="#fff" stroke="#0070c0" stroke-miterlimit="8" stroke-width="1.333" fill-rule="evenodd"/><g transform="translate(15.398 1)"><text transform="translate(1105.602 453)" font-size="11" font-family="Calibri-Bold, Calibri" font-weight="700"><tspan x="0" y="0">Dr Salah Al-Majeed</tspan></text><text transform="translate(1149.602 466)" font-size="11" font-family="Calibri"><tspan x="-46.178" y="0">SoCS Acting Head of </tspan><tspan x="-14.805" y="13">School</tspan></text></g><text transform="translate(1042.966 461)" font-size="11" font-family="Calibri"><tspan x="-41.008" y="0">Monthly Meetings</tspan><tspan x="-13.183" y="13">(TBC) </tspan></text></g><g transform="translate(-263 -198)"><path d="M709.5,63.8a4.3,4.3,0,0,1,4.3-4.3H823.2a4.3,4.3,0,0,1,4.3,4.3v37.4a4.3,4.3,0,0,1-4.3,4.3H713.8a4.3,4.3,0,0,1-4.3-4.3Z" transform="translate(300 200)" fill="#fff" stroke="#0070c0" stroke-miterlimit="8" stroke-width="1.333" fill-rule="evenodd"/><g transform="translate(299.789 200)"><text transform="translate(734.378 76)" font-size="11" font-family="Calibri-Bold, Calibri" font-weight="700"><tspan x="0" y="0">Prof Libby John</tspan></text><text transform="translate(769.211 87)" font-size="8" font-family="Calibri"><tspan x="-47.545" y="0">Pro Vice Chancellor / Head of</tspan><tspan x="-30.172" y="10">College of Science </tspan></text></g><text transform="translate(982.01 280)" font-size="11" font-family="Calibri"><tspan x="-18.925" y="0">Monthly</tspan><tspan x="-22.083" y="13">Meetings </tspan></text></g><g transform="translate(-263 -198)"><path d="M709.5,169.8a4.255,4.255,0,0,1,4.207-4.3H823.293a4.255,4.255,0,0,1,4.207,4.3v37.4a4.255,4.255,0,0,1-4.207,4.3H713.707a4.255,4.255,0,0,1-4.207-4.3Z" transform="translate(300 200)" fill="#fff" stroke="#0070c0" stroke-miterlimit="8" stroke-width="1.333" fill-rule="evenodd"/><g transform="translate(13 1)"><text transform="translate(1032 378)" font-size="11" font-family="Calibri-Bold, Calibri" font-weight="700"><tspan x="0" y="0">Mark Page</tspan></text><text transform="translate(1056 391)" font-size="11" font-family="Calibri"><tspan x="-33.585" y="0">CoS Director of</tspan><tspan x="-24.661" y="13">Operations</tspan></text></g></g><path d="M826.5,138.5h37" transform="translate(38 -2)" fill="none" stroke="#7f7f7f" stroke-miterlimit="8" stroke-width="0.667" stroke-dasharray="2.667 2" fill-rule="evenodd"/><path d="M828.5,187.5h37" transform="translate(36 2)" fill="none" stroke="#7f7f7f" stroke-miterlimit="8" stroke-width="0.667" stroke-dasharray="2.667 2" fill-rule="evenodd"/><g transform="translate(-262.5 -197.5)"><path d="M9.5,652.2c0-3.15,2.27-5.7,5.07-5.7H124.431c2.8,0,5.069,2.554,5.069,5.7V701.8c0,3.149-2.27,5.7-5.069,5.7H14.57c-2.8,0-5.07-2.554-5.07-5.7Z" transform="translate(287 201)" fill="#fff" stroke="#bf9000" stroke-miterlimit="8" stroke-width="1.333" fill-rule="evenodd"/><g transform="translate(-5.623 1)"><text transform="translate(354.043 874)" font-size="11" font-family="Calibri-Bold, Calibri" font-weight="700"><tspan x="0" y="0">TBC</tspan></text><text transform="translate(322.623 887)" font-size="11" font-family="Calibri"><tspan x="0" y="0">Course Rep - MSc </tspan></text></g></g><path d="M0-.741v-36.5" transform="translate(93.5 612.759) rotate(180)" fill="none" stroke="#7f7f7f" stroke-miterlimit="8" stroke-width="0.667" stroke-dasharray="2.667 2" fill-rule="evenodd"/><path d="M500.5,611.5v37.208" transform="translate(-20 1.292)" fill="none" stroke="#7f7f7f" stroke-miterlimit="8" stroke-width="0.667" stroke-dasharray="2.667 2" fill-rule="evenodd"/><path d="M599.5,610.5v37.208" transform="translate(10 2.292)" fill="none" stroke="#7f7f7f" stroke-miterlimit="8" stroke-width="0.667" stroke-dasharray="2.667 2" fill-rule="evenodd"/><g transform="translate(679 10)" fill="none" stroke="#0070c0" stroke-width="1" stroke-dasharray="4"><rect width="294" height="470" rx="7" stroke="none"/><rect x="0.5" y="0.5" width="293" height="469" rx="6.5" fill="none"/></g><g transform="translate(-263 -198)"><path d="M709.5,115.8a4.3,4.3,0,0,1,4.3-4.3H823.2a4.3,4.3,0,0,1,4.3,4.3v37.4a4.3,4.3,0,0,1-4.3,4.3H713.8a4.3,4.3,0,0,1-4.3-4.3Z" transform="translate(300 200)" fill="#fff" stroke="#0070c0" stroke-miterlimit="8" stroke-width="1.333" fill-rule="evenodd"/><g transform="translate(299.955 201)"><text transform="translate(730.045 126)" font-size="11" font-family="Calibri-Bold, Calibri" font-weight="700"><tspan x="0" y="0">Dr Andy Evenden</tspan></text><text transform="translate(769.045 138)" font-size="9" font-family="Calibri"><tspan x="-27.479" y="0">CoS Director of</tspan><tspan x="-44.152" y="11">Education and Students </tspan></text></g><text transform="translate(982.01 332)" font-size="11" font-family="Calibri"><tspan x="-18.925" y="0">Monthly</tspan><tspan x="-22.083" y="13">Meetings </tspan></text></g><g transform="translate(-263 -198)"><path d="M16.5,332.578a6.078,6.078,0,0,1,6.077-6.078H128.423a6.078,6.078,0,0,1,6.077,6.078v52.845a6.077,6.077,0,0,1-6.077,6.077H22.577a6.077,6.077,0,0,1-6.077-6.077Z" transform="translate(287 200)" fill="#fff" stroke="#a6a6a6" stroke-miterlimit="8" stroke-width="1.333" fill-rule="evenodd"/><g transform="translate(285.189 201)"><text transform="translate(77.811 349)" fill="#a6a6a6" font-size="11" font-family="Calibri-Bold, Calibri" font-weight="700"><tspan x="-41.725" y="0">Matthew Gurnhill </tspan></text><text transform="translate(77.811 362)" fill="#a6a6a6" font-size="11" font-family="Calibri"><tspan x="-24.302" y="0">Geography</tspan><tspan x="-25.808" y="13">School Rep </tspan></text></g></g><g transform="translate(-263 -198)"><path d="M15.5,418.577a6.125,6.125,0,0,1,6.171-6.077H127.329a6.125,6.125,0,0,1,6.171,6.077v52.845a6.125,6.125,0,0,1-6.171,6.077H21.671a6.125,6.125,0,0,1-6.171-6.077Z" transform="translate(288 200)" fill="#fff" stroke="#a6a6a6" stroke-miterlimit="8" stroke-width="1.333" fill-rule="evenodd"/><g transform="translate(285.189 287)"><text transform="translate(77.811 349)" fill="#a6a6a6" font-size="11" font-family="Calibri-Bold, Calibri" font-weight="700"><tspan x="-31.743" y="0">William Evans</tspan></text><text transform="translate(77.811 362)" fill="#a6a6a6" font-size="11" font-family="Calibri"><tspan x="-36.365" y="0">Maths &amp; Physics</tspan><tspan x="-24.565" y="13">School Rep</tspan></text></g></g><g transform="translate(-263 -198)"><path d="M16.5,504.578a6.078,6.078,0,0,1,6.077-6.078H128.423a6.078,6.078,0,0,1,6.077,6.078v52.845a6.077,6.077,0,0,1-6.077,6.077H22.577a6.077,6.077,0,0,1-6.077-6.077Z" transform="translate(287 200)" fill="#fff" stroke="#a6a6a6" stroke-miterlimit="8" stroke-width="1.333" fill-rule="evenodd"/><g transform="translate(285.189 373)"><text transform="translate(77.811 349)" fill="#a6a6a6" font-size="11" font-family="Calibri-Bold, Calibri" font-weight="700"><tspan x="-36.808" y="0">Alastair Davison</tspan></text><text transform="translate(77.811 362)" fill="#a6a6a6" font-size="11" font-family="Calibri"><tspan x="-26.447" y="0">Engineering</tspan><tspan x="-24.565" y="13">School Rep</tspan></text></g></g><g transform="translate(-263 -198)"><path d="M186.5,332.578a6.078,6.078,0,0,1,6.077-6.078H298.423a6.078,6.078,0,0,1,6.077,6.078v52.845a6.077,6.077,0,0,1-6.077,6.077H192.577a6.077,6.077,0,0,1-6.077-6.077Z" transform="translate(287 200)" fill="#fff" stroke="#a6a6a6" stroke-miterlimit="8" stroke-width="1.333" fill-rule="evenodd"/><g transform="translate(455.189 201)"><text transform="translate(77.811 349)" fill="#a6a6a6" font-size="11" font-family="Calibri-Bold, Calibri" font-weight="700"><tspan x="-32.968" y="0">Sam Blouri Far</tspan></text><text transform="translate(77.811 362)" fill="#a6a6a6" font-size="11" font-family="Calibri"><tspan x="-22.126" y="0">Pharmacy</tspan><tspan x="-25.808" y="13">School Rep </tspan></text></g></g><g transform="translate(-263 -198)"><path d="M186.5,418.578a6.078,6.078,0,0,1,6.077-6.078H298.423a6.078,6.078,0,0,1,6.077,6.078v52.845a6.077,6.077,0,0,1-6.077,6.077H192.577a6.077,6.077,0,0,1-6.077-6.077Z" transform="translate(287 200)" fill="#fff" stroke="#a6a6a6" stroke-miterlimit="8" stroke-width="1.333" fill-rule="evenodd"/><g transform="translate(455.189 287)"><text transform="translate(77.811 349)" fill="#a6a6a6" font-size="11" font-family="Calibri-Bold, Calibri" font-weight="700"><tspan x="-28.985" y="0">Karl Johnson</tspan></text><text transform="translate(77.811 362)" fill="#a6a6a6" font-size="11" font-family="Calibri"><tspan x="-28.051" y="0">Life Sciences</tspan><tspan x="-25.808" y="13">School Rep </tspan></text></g></g><g transform="translate(-263 -198)"><path d="M187.5,504.671a6.171,6.171,0,0,1,6.171-6.171H299.329a6.171,6.171,0,0,1,6.171,6.171v53.658a6.171,6.171,0,0,1-6.171,6.171H193.671a6.171,6.171,0,0,1-6.171-6.171Z" transform="translate(286 200)" fill="#fff" stroke="#a6a6a6" stroke-miterlimit="8" stroke-width="1.333" fill-rule="evenodd"/><g transform="translate(455.189 373)"><text transform="translate(77.811 349)" fill="#a6a6a6" font-size="11" font-family="Calibri-Bold, Calibri" font-weight="700"><tspan x="-28.878" y="0">Stephie Aine</tspan></text><text transform="translate(77.811 362)" fill="#a6a6a6" font-size="11" font-family="Calibri"><tspan x="-17.768" y="0">Medical</tspan><tspan x="-25.808" y="13">School Rep </tspan></text></g></g><g transform="translate(-263 -198)"><path d="M329.5,332.578a6.078,6.078,0,0,1,6.077-6.078H441.423a6.078,6.078,0,0,1,6.077,6.078v52.845a6.077,6.077,0,0,1-6.077,6.077H335.577a6.077,6.077,0,0,1-6.077-6.077Z" transform="translate(287 200)" fill="#fff" stroke="#a6a6a6" stroke-miterlimit="8" stroke-width="1.333" fill-rule="evenodd"/><g transform="translate(598.189 201)"><text transform="translate(77.811 349)" fill="#a6a6a6" font-size="11" font-family="Calibri-Bold, Calibri" font-weight="700"><tspan x="-34.746" y="0">Gabriela Clarke</tspan></text><text transform="translate(77.811 362)" fill="#a6a6a6" font-size="11" font-family="Calibri"><tspan x="-22.58" y="0">Chemistry</tspan><tspan x="-25.808" y="13">School Rep </tspan></text></g></g><g transform="translate(-133.5 -197.5)"><path d="M9.5,652.2c0-3.15,2.27-5.7,5.07-5.7H124.431c2.8,0,5.069,2.554,5.069,5.7V701.8c0,3.149-2.27,5.7-5.069,5.7H14.57c-2.8,0-5.07-2.554-5.07-5.7Z" transform="translate(287 201)" fill="#fff" stroke="#bf9000" stroke-miterlimit="8" stroke-width="1.333" fill-rule="evenodd"/><g transform="translate(-1.623 1)"><text transform="translate(350.043 874)" font-size="11" font-family="Calibri-Bold, Calibri" font-weight="700"><tspan x="0" y="0">TBC</tspan></text><text transform="translate(322.623 887)" font-size="11" font-family="Calibri"><tspan x="0" y="0">Course Rep - Y3 </tspan></text></g></g><g transform="translate(-5.5 -197.5)"><path d="M9.5,652.2c0-3.15,2.27-5.7,5.07-5.7H124.431c2.8,0,5.069,2.554,5.069,5.7V701.8c0,3.149-2.27,5.7-5.069,5.7H14.57c-2.8,0-5.07-2.554-5.07-5.7Z" transform="translate(287 201)" fill="#fff" stroke="#bf9000" stroke-miterlimit="8" stroke-width="1.333" fill-rule="evenodd"/><g transform="translate(-1.623 1)"><text transform="translate(350.043 874)" font-size="11" font-family="Calibri-Bold, Calibri" font-weight="700"><tspan x="0" y="0">TBC</tspan></text><text transform="translate(322.623 887)" font-size="11" font-family="Calibri"><tspan x="0" y="0">Course Rep - Y3 </tspan></text></g></g><g transform="translate(123.5 -197.5)"><path d="M9.5,652.2c0-3.15,2.27-5.7,5.07-5.7H124.431c2.8,0,5.069,2.554,5.069,5.7V701.8c0,3.149-2.27,5.7-5.069,5.7H14.57c-2.8,0-5.07-2.554-5.07-5.7Z" transform="translate(287 201)" fill="#fff" stroke="#bf9000" stroke-miterlimit="8" stroke-width="1.333" fill-rule="evenodd"/><g transform="translate(-1.623 1)"><text transform="translate(350.043 874)" font-size="11" font-family="Calibri-Bold, Calibri" font-weight="700"><tspan x="0" y="0">TBC</tspan></text><text transform="translate(322.623 887)" font-size="11" font-family="Calibri"><tspan x="0" y="0">Course Rep - Y2 </tspan></text></g></g><g transform="translate(252.5 -197.5)"><path d="M9.5,652.2c0-3.15,2.27-5.7,5.07-5.7H124.431c2.8,0,5.069,2.554,5.069,5.7V701.8c0,3.149-2.27,5.7-5.069,5.7H14.57c-2.8,0-5.07-2.554-5.07-5.7Z" transform="translate(287 201)" fill="#fff" stroke="#bf9000" stroke-miterlimit="8" stroke-width="1.333" fill-rule="evenodd"/><g transform="translate(-1.623 1)"><text transform="translate(350.043 874)" font-size="11" font-family="Calibri-Bold, Calibri" font-weight="700"><tspan x="0" y="0">TBC</tspan></text><text transform="translate(322.623 887)" font-size="11" font-family="Calibri"><tspan x="0" y="0">Course Rep - Y2 </tspan></text></g></g><g transform="translate(380.5 -197.5)"><path d="M9.5,652.2c0-3.15,2.27-5.7,5.07-5.7H124.431c2.8,0,5.069,2.554,5.069,5.7V701.8c0,3.149-2.27,5.7-5.069,5.7H14.57c-2.8,0-5.07-2.554-5.07-5.7Z" transform="translate(287 201)" fill="#fff" stroke="#bf9000" stroke-miterlimit="8" stroke-width="1.333" fill-rule="evenodd"/><g transform="translate(-1.623 1)"><text transform="translate(350.043 874)" font-size="11" font-family="Calibri-Bold, Calibri" font-weight="700"><tspan x="0" y="0">TBC</tspan></text><text transform="translate(322.623 887)" font-size="11" font-family="Calibri"><tspan x="0" y="0">Course Rep - Y1 </tspan></text></g></g><g transform="translate(510 -197.5)"><path d="M9.5,652.2c0-3.15,2.27-5.7,5.07-5.7H124.431c2.8,0,5.069,2.554,5.069,5.7V701.8c0,3.149-2.27,5.7-5.069,5.7H14.57c-2.8,0-5.07-2.554-5.07-5.7Z" transform="translate(287.5 201)" fill="#fff" stroke="#bf9000" stroke-miterlimit="8" stroke-width="1.333" fill-rule="evenodd"/><g transform="translate(-1.123 1)"><text transform="translate(350.043 874)" font-size="11" font-family="Calibri-Bold, Calibri" font-weight="700"><tspan x="0" y="0">TBC</tspan></text><text transform="translate(322.623 887)" font-size="11" font-family="Calibri"><tspan x="0" y="0">Course Rep - Y1 </tspan></text></g></g><text transform="translate(386 736)" font-size="11" font-family="Calibri-Bold, Calibri" font-weight="700"><tspan x="0" y="0">Note: </tspan><tspan y="0" font-family="Calibri" font-weight="400">The number of course reps is </tspan><tspan y="0">not </tspan><tspan y="0" font-family="Calibri" font-weight="400">limited!</tspan></text></g></svg>