<svg width="960" height="720" xmlns="http://www.w3.org/2000/svg" xmlns:xlink="http://www.w3.org/1999/xlink" overflow="hidden"><defs><clipPath id="clip0"><rect x="0" y="0" width="960" height="720"/></clipPath></defs><g clip-path="url(#clip0)"><rect x="0" y="0" width="960" height="720" fill="#F5F5F5"/><path d="M54.5001 72.7361C54.5001 69.8443 56.8443 67.5001 59.7361 67.5001L167.264 67.5001C170.156 67.5001 172.5 69.8443 172.5 72.7361L172.5 118.264C172.5 121.156 170.156 123.5 167.264 123.5L59.7361 123.5C56.8443 123.5 54.5001 121.156 54.5001 118.264Z" stroke="#BF9000" stroke-width="1.33333" stroke-miterlimit="8" fill="#FFFFFF" fill-rule="evenodd"/><text font-family="Calibri,Calibri_MSFontService,sans-serif" font-weight="700" font-size="11" transform="translate(85.464 92)">Talia Adams<tspan font-weight="400" x="-7.24667" y="13">VP of Education</tspan></text><path d="M218.5 202.643C218.5 199.802 220.802 197.5 223.643 197.5L332.358 197.5C335.198 197.5 337.5 199.802 337.5 202.643L337.5 247.358C337.5 250.198 335.198 252.5 332.358 252.5L223.643 252.5C220.802 252.5 218.5 250.198 218.5 247.358Z" stroke="#BF9000" stroke-width="1.33333" stroke-miterlimit="8" fill="#FFFFFF" fill-rule="evenodd"/><text font-family="Calibri,Calibri_MSFontService,sans-serif" font-weight="700" font-size="11" transform="translate(248.35 222)">Owen Liggins<tspan font-weight="400" x="5.08" y="13">CoS Officer</tspan></text><path d="M471.5 332.578C471.5 329.221 474.221 326.5 477.577 326.5L583.423 326.5C586.779 326.5 589.5 329.221 589.5 332.578L589.5 385.423C589.5 388.779 586.779 391.5 583.423 391.5L477.577 391.5C474.221 391.5 471.5 388.779 471.5 385.423Z" stroke="#BF9000" stroke-width="1.33333" stroke-miterlimit="8" fill="#FFFFFF" fill-rule="evenodd"/><text font-family="Calibri,Calibri_MSFontService,sans-serif" font-weight="700" font-size="11" transform="translate(493.742 349)">William Oldham<tspan font-weight="400" x="-3.41998" y="13">Computer Science  </tspan><tspan font-weight="400" x="11.9133" y="26">School Rep</tspan></text><path d="M292.5 594.204C292.5 591.054 295.054 588.5 298.204 588.5L404.797 588.5C407.947 588.5 410.5 591.054 410.5 594.204L410.5 643.797C410.5 646.947 407.947 649.5 404.797 649.5L298.204 649.5C295.054 649.5 292.5 646.947 292.5 643.797Z" stroke="#BF9000" stroke-width="1.33333" stroke-miterlimit="8" fill="#FFFFFF" fill-rule="evenodd"/><text font-family="Calibri,Calibri_MSFontService,sans-serif" font-weight="700" font-size="11" transform="translate(311.437 615)">Reece Andy Jones<tspan font-weight="400" x="4.33331" y="13">Course </tspan><tspan font-weight="400" x="36.8333" y="13">Rep </tspan><tspan font-weight="400" x="56" y="13">–</tspan><tspan font-weight="400" x="63.6667" y="13">Y3</tspan></text><path d="M416.5 594.204C416.5 591.054 419.054 588.5 422.204 588.5L528.797 588.5C531.947 588.5 534.5 591.054 534.5 594.204L534.5 643.797C534.5 646.947 531.947 649.5 528.797 649.5L422.204 649.5C419.054 649.5 416.5 646.947 416.5 643.797Z" stroke="#BF9000" stroke-width="1.33333" stroke-miterlimit="8" fill="#FFFFFF" fill-rule="evenodd"/><text font-family="Calibri,Calibri_MSFontService,sans-serif" font-weight="700" font-size="11" transform="translate(466.562 615)">TBC<tspan font-weight="400" x="-26.4133" y="13">Course Rep </tspan><tspan font-weight="400" x="25.2533" y="13">–</tspan><tspan font-weight="400" x="32.92" y="13">Y2</tspan></text><path d="M540.5 594.204C540.5 591.054 543.054 588.5 546.204 588.5L652.797 588.5C655.947 588.5 658.5 591.054 658.5 594.204L658.5 643.797C658.5 646.947 655.947 649.5 652.797 649.5L546.204 649.5C543.054 649.5 540.5 646.947 540.5 643.797Z" stroke="#BF9000" stroke-width="1.33333" stroke-miterlimit="8" fill="#FFFFFF" fill-rule="evenodd"/><text font-family="Calibri,Calibri_MSFontService,sans-serif" font-weight="700" font-size="11" transform="translate(590.94 615)">TBC<tspan font-weight="400" x="-26.4133" y="13">Course Rep </tspan><tspan font-weight="400" x="25.2534" y="13">–</tspan><tspan font-weight="400" x="32.92" y="13">Y2</tspan></text><path d="M151.5 593.204C151.5 590.054 154.054 587.5 157.204 587.5L279.797 587.5C282.947 587.5 285.5 590.054 285.5 593.204L285.5 642.797C285.5 645.947 282.947 648.5 279.797 648.5L157.204 648.5C154.054 648.5 151.5 645.947 151.5 642.797Z" stroke="#BF9000" stroke-width="1.33333" stroke-miterlimit="8" fill="#FFFFFF" fill-rule="evenodd"/><text font-family="Calibri,Calibri_MSFontService,sans-serif" font-weight="700" font-size="11" transform="translate(174.734 614)">Brandon<tspan x="37.8333" y="0">-</tspan><tspan x="41.1667" y="0">Lee Dodds</tspan><tspan font-weight="400" x="8.41335" y="13">Course Rep </tspan><tspan font-weight="400" x="60.08" y="13">–</tspan><tspan font-weight="400" x="67.7467" y="13">Y3</tspan></text><path d="M665.5 594.204C665.5 591.054 668.054 588.5 671.204 588.5L777.797 588.5C780.947 588.5 783.5 591.054 783.5 594.204L783.5 643.797C783.5 646.947 780.947 649.5 777.797 649.5L671.204 649.5C668.054 649.5 665.5 646.947 665.5 643.797Z" stroke="#BF9000" stroke-width="1.33333" stroke-miterlimit="8" fill="#FFFFFF" fill-rule="evenodd"/><text font-family="Calibri,Calibri_MSFontService,sans-serif" font-weight="700" font-size="11" transform="translate(715.318 615)">TB<tspan x="11.3333" y="0">C</tspan><tspan font-weight="400" x="-26.4133" y="13">Course Rep </tspan><tspan font-weight="400" x="25.2534" y="13">–</tspan><tspan font-weight="400" x="32.92" y="13">Y2</tspan></text><path d="M804.5 326.801C804.5 324.426 806.426 322.5 808.801 322.5L918.199 322.5C920.574 322.5 922.5 324.426 922.5 326.801L922.5 364.199C922.5 366.574 920.574 368.5 918.199 368.5L808.801 368.5C806.426 368.5 804.5 366.574 804.5 364.199Z" stroke="#0070C0" stroke-width="1.33333" stroke-miterlimit="8" fill="#FFFFFF" fill-rule="evenodd"/><text font-family="Calibri,Calibri_MSFontService,sans-serif" font-weight="700" font-size="11" transform="translate(820.562 336)">Dr Chris Headleand<tspan font-weight="400" x="-1.5" y="13">Director of Teaching </tspan><tspan font-weight="400" x="18.9133" y="26">&amp; Learning</tspan></text><path d="M803.5 409.707C803.5 407.384 805.384 405.5 807.707 405.5L921.293 405.5C923.616 405.5 925.5 407.384 925.5 409.707L925.5 446.293C925.5 448.616 923.616 450.5 921.293 450.5L807.707 450.5C805.384 450.5 803.5 448.616 803.5 446.293Z" stroke="#0070C0" stroke-width="1.33333" stroke-miterlimit="8" fill="#FFFFFF" fill-rule="evenodd"/><text font-family="Calibri,Calibri_MSFontService,sans-serif" font-weight="700" font-size="11" transform="translate(814.999 419)">Dr <tspan x="12.8333" y="0">Olivier </tspan><tspan x="44.5" y="0">Szymanezyk</tspan><tspan font-weight="400" x="3.58667" y="13">Student </tspan><tspan font-weight="400" x="40.0867" y="13">Engagement </tspan><tspan font-weight="400" x="38.6667" y="26">Lead</tspan></text><path d="M642.5 17.0225C642.5 12.3157 646.316 8.50005 651.023 8.50005L922.978 8.50005C927.684 8.50005 931.5 12.3157 931.5 17.0225L931.5 468.978C931.5 473.684 927.684 477.5 922.978 477.5L651.023 477.5C646.316 477.5 642.5 473.684 642.5 468.978Z" stroke="#0070C0" stroke-width="1.33333" stroke-miterlimit="8" stroke-dasharray="5.33333 4" fill="none" fill-rule="evenodd"/><path d="M0 0 773.554 0.585407" stroke="#7F7F7F" stroke-width="0.666667" stroke-miterlimit="8" stroke-dasharray="2.66667 2" fill="none" fill-rule="evenodd" transform="matrix(1 0 0 -1 72.5001 552.085)"/><path d="M0 0 0.000104987 37.2414" stroke="#7F7F7F" stroke-width="0.666667" stroke-miterlimit="8" stroke-dasharray="2.66667 2" fill="none" fill-rule="evenodd" transform="matrix(-1 -8.74228e-08 -8.74228e-08 1 219.5 552.5)"/><path d="M350.5 552.5 350.5 589.741" stroke="#7F7F7F" stroke-width="0.666667" stroke-miterlimit="8" stroke-dasharray="2.66667 2" fill="none" fill-rule="evenodd"/><path d="M0 0 0.0622572 159.02" stroke="#7F7F7F" stroke-width="0.666667" stroke-miterlimit="8" stroke-dasharray="2.66667 2" fill="none" fill-rule="evenodd" transform="matrix(-1 -8.74228e-08 -8.74228e-08 1 529.562 393.5)"/><path d="M722.5 551.5 722.5 588.741" stroke="#7F7F7F" stroke-width="0.666667" stroke-miterlimit="8" stroke-dasharray="2.66667 2" fill="none" fill-rule="evenodd"/><path d="M845.5 550.5 845.5 587.741" stroke="#7F7F7F" stroke-width="0.666667" stroke-miterlimit="8" stroke-dasharray="2.66667 2" fill="none" fill-rule="evenodd"/><path d="M278.5 254.5 278.5 291.741" stroke="#7F7F7F" stroke-width="0.666667" stroke-miterlimit="8" stroke-dasharray="2.66667 2" fill="none" fill-rule="evenodd"/><path d="M73.5001 292.5 531.225 292.5" stroke="#7F7F7F" stroke-width="0.666667" stroke-miterlimit="8" stroke-dasharray="2.66667 2" fill="none" fill-rule="evenodd"/><path d="M530.5 292.5 530.5 329.741" stroke="#7F7F7F" stroke-width="0.666667" stroke-miterlimit="8" stroke-dasharray="2.66667 2" fill="none" fill-rule="evenodd"/><path d="M863.5 286.5 863.5 323.741" stroke="#7F7F7F" stroke-width="0.666667" stroke-miterlimit="8" stroke-dasharray="2.66667 2" fill="none" fill-rule="evenodd"/><path d="M863.5 369.5 863.5 406.741" stroke="#7F7F7F" stroke-width="0.666667" stroke-miterlimit="8" stroke-dasharray="2.66667 2" fill="none" fill-rule="evenodd"/><path d="M0.500053 161.5 278.017 161.5" stroke="#7F7F7F" stroke-width="0.666667" stroke-miterlimit="8" stroke-dasharray="2.66667 2" fill="none" fill-rule="evenodd"/><path d="M278.5 161.5 278.5 198.741" stroke="#7F7F7F" stroke-width="0.666667" stroke-miterlimit="8" stroke-dasharray="2.66667 2" fill="none" fill-rule="evenodd"/><path d="M110.5 125.5 110.5 162.741" stroke="#7F7F7F" stroke-width="0.666667" stroke-miterlimit="8" stroke-dasharray="2.66667 2" fill="none" fill-rule="evenodd"/><path d="M186.5 332.578C186.5 329.221 189.221 326.5 192.577 326.5L298.423 326.5C301.779 326.5 304.5 329.221 304.5 332.578L304.5 385.423C304.5 388.779 301.779 391.5 298.423 391.5L192.577 391.5C189.221 391.5 186.5 388.779 186.5 385.423Z" stroke="#A6A6A6" stroke-width="1.33333" stroke-miterlimit="8" fill="#FFFFFF" fill-rule="evenodd"/><text fill="#A6A6A6" font-family="Calibri,Calibri_MSFontService,sans-serif" font-weight="700" font-size="11" transform="translate(212.954 356)">Sam <tspan x="21.3333" y="0">Blouri</tspan><tspan x="50.1667" y="0">Far</tspan><tspan font-weight="400" x="-14.5867" y="13">Pharmacy School Rep</tspan></text><path d="M16.5001 332.578C16.5001 329.221 19.221 326.5 22.5775 326.5L128.423 326.5C131.779 326.5 134.5 329.221 134.5 332.578L134.5 385.423C134.5 388.779 131.779 391.5 128.423 391.5L22.5775 391.5C19.221 391.5 16.5001 388.779 16.5001 385.423Z" stroke="#A6A6A6" stroke-width="1.33333" stroke-miterlimit="8" fill="#FFFFFF" fill-rule="evenodd"/><text fill="#A6A6A6" font-family="Calibri,Calibri_MSFontService,sans-serif" font-weight="700" font-size="11" transform="translate(35.8108 349)">Matthew <tspan x="43.3333" y="0">Gurnhill</tspan><tspan font-weight="400" x="0.0866661" y="13">Geography School </tspan><tspan font-weight="400" x="31.0867" y="26">Rep</tspan></text><path d="M186.5 469.578C186.5 466.221 189.221 463.5 192.577 463.5L298.423 463.5C301.779 463.5 304.5 466.221 304.5 469.578L304.5 522.423C304.5 525.779 301.779 528.5 298.423 528.5L192.577 528.5C189.221 528.5 186.5 525.779 186.5 522.423Z" stroke="#A6A6A6" stroke-width="1.33333" stroke-miterlimit="8" fill="#FFFFFF" fill-rule="evenodd"/><text fill="#A6A6A6" font-family="Calibri,Calibri_MSFontService,sans-serif" font-weight="700" font-size="11" transform="translate(216.954 486)">Karl Johnson<tspan font-weight="400" x="-14.92" y="13">Life Sciences School </tspan><tspan font-weight="400" x="19.6667" y="26">Rep</tspan></text><path d="M15.5001 469.578C15.5001 466.221 18.221 463.5 21.5775 463.5L127.423 463.5C130.779 463.5 133.5 466.221 133.5 469.578L133.5 522.423C133.5 525.779 130.779 528.5 127.423 528.5L21.5775 528.5C18.221 528.5 15.5001 525.779 15.5001 522.423Z" stroke="#A6A6A6" stroke-width="1.33333" stroke-miterlimit="8" fill="#FFFFFF" fill-rule="evenodd"/><text fill="#A6A6A6" font-family="Calibri,Calibri_MSFontService,sans-serif" font-weight="700" font-size="11" transform="translate(43.1273 486)">William Evans<tspan font-weight="400" x="-4.42" y="13">Maths</tspan><tspan font-weight="400" x="25.58" y="13">&amp; Physics </tspan><tspan font-weight="400" x="7.08" y="26">School Rep</tspan></text><path d="M329.5 332.578C329.5 329.221 332.221 326.5 335.577 326.5L441.423 326.5C444.779 326.5 447.5 329.221 447.5 332.578L447.5 385.423C447.5 388.779 444.779 391.5 441.423 391.5L335.577 391.5C332.221 391.5 329.5 388.779 329.5 385.423Z" stroke="#A6A6A6" stroke-width="1.33333" stroke-miterlimit="8" fill="#FFFFFF" fill-rule="evenodd"/><text fill="#A6A6A6" font-family="Calibri,Calibri_MSFontService,sans-serif" font-weight="700" font-size="11" transform="translate(349.583 356)">Gabriela C Clarke<tspan font-weight="400" x="-9.07999" y="13">Chemistry School Rep</tspan></text><path d="M245.5 290.5 245.5 327.741" stroke="#7F7F7F" stroke-width="0.666667" stroke-miterlimit="8" stroke-dasharray="2.66667 2" fill="none" fill-rule="evenodd"/><path d="M390.5 290.5 390.5 327.741" stroke="#7F7F7F" stroke-width="0.666667" stroke-miterlimit="8" stroke-dasharray="2.66667 2" fill="none" fill-rule="evenodd"/><path d="M73.5001 292.5 73.5002 329.741" stroke="#7F7F7F" stroke-width="0.666667" stroke-miterlimit="8" stroke-dasharray="2.66667 2" fill="none" fill-rule="evenodd"/><path d="M159.5 291.5 159.5 426.329" stroke="#7F7F7F" stroke-width="0.666667" stroke-miterlimit="8" stroke-dasharray="2.66667 2" fill="none" fill-rule="evenodd"/><path d="M0 0 172.828 1.03129" stroke="#7F7F7F" stroke-width="0.666667" stroke-miterlimit="8" stroke-dasharray="2.66667 2" fill="none" fill-rule="evenodd" transform="matrix(1 0 0 -1 73.5001 426.531)"/><path d="M74.5001 426.5 74.5002 463.741" stroke="#7F7F7F" stroke-width="0.666667" stroke-miterlimit="8" stroke-dasharray="2.66667 2" fill="none" fill-rule="evenodd"/><path d="M245.5 428.5 245.5 465.741" stroke="#7F7F7F" stroke-width="0.666667" stroke-miterlimit="8" stroke-dasharray="2.66667 2" fill="none" fill-rule="evenodd"/><path d="M647 16.8847C647 14.187 649.187 12 651.885 12L922.115 12C924.813 12 927 14.187 927 16.8847L927 36.1153C927 38.813 924.813 41 922.115 41L651.885 41C649.187 41 647 38.813 647 36.1153Z" fill="#002060" fill-rule="evenodd"/><text fill="#FFFFFF" font-family="Calibri,Calibri_MSFontService,sans-serif" font-weight="700" font-size="13" transform="translate(710.352 31)">School of Computer Science</text><path d="M16 22.5477C16 20.0361 18.036 18 20.5476 18L600.452 18C602.964 18 605 20.0361 605 22.5477L605 40.4523C605 42.9639 602.964 45 600.452 45L20.5476 45C18.036 45 16 42.9639 16 40.4523Z" fill="#FFF2CC" fill-rule="evenodd"/><text font-family="Calibri,Calibri_MSFontService,sans-serif" font-weight="700" font-size="13" transform="translate(107.149 35)">SU Organisation<tspan x="92.1667" y="0">Chart for College of Science </tspan><tspan x="246.167" y="0">-</tspan><tspan x="253.167" y="0">School of Computer Science</tspan></text><path d="M589.5 363.5 644.128 363.5" stroke="#7F7F7F" stroke-width="0.666667" stroke-miterlimit="8" stroke-dasharray="2.66667 2" fill="none" fill-rule="evenodd"/><text font-family="Calibri,Calibri_MSFontService,sans-serif" font-weight="400" font-size="11" transform="translate(596.101 346)">Working <tspan x="-2.91333" y="13">with SoCS</tspan><tspan x="-245.736" y="182">Working with course reps across each </tspan><tspan x="-245.736" y="195">year group </tspan><tspan font-style="italic" x="-196.402" y="195">(the best team in the world!)</tspan></text><rect x="60" y="265" width="435" height="23" fill="#F5F5F5"/><text font-family="Calibri,Calibri_MSFontService,sans-serif" font-weight="400" font-size="11" transform="translate(69.5171 280)">Working with School Rep Officers. <tspan font-weight="700" x="150" y="0">Note</tspan><tspan x="171.667" y="0">: All School reps also have dotted line to VP of Education</tspan></text><rect x="13" y="138" width="250" height="22" fill="#F5F5F5"/><text font-family="Calibri,Calibri_MSFontService,sans-serif" font-weight="400" font-size="11" transform="translate(22.1323 152)">Working with Colleges and all reps (School &amp; course)<tspan x="696.412" y="190">Weekly </tspan><tspan x="692.246" y="203">Meetings</tspan><tspan x="674.834" y="101">Monthly Meetings </tspan><tspan x="672.668" y="114">(3</tspan><tspan font-size="7" x="681.168" y="111">rd</tspan><tspan x="694.334" y="114">Wednesday of </tspan><tspan x="698.421" y="127">Month)</tspan><tspan x="338.397" y="69">Monthly Meetings </tspan><tspan x="333.73" y="82">(12</tspan><tspan font-size="7" x="347.563" y="79">th</tspan><tspan x="355.897" y="82">of each Month)</tspan></text><rect x="488" y="408" width="83" height="35" fill="#F5F5F5"/><text font-family="Calibri,Calibri_MSFontService,sans-serif" font-weight="400" font-size="11" transform="translate(510.198 423)">Daily rep <tspan x="-4.58002" y="13">interaction </tspan></text><path d="M863.5 80.5001 863.5 240.952" stroke="#7F7F7F" stroke-width="0.666667" stroke-miterlimit="8" stroke-dasharray="2.66667 2" fill="none" fill-rule="evenodd"/><path d="M709.5 63.801C709.5 61.4257 711.426 59.5001 713.801 59.5001L823.199 59.5001C825.574 59.5001 827.5 61.4257 827.5 63.801L827.5 101.199C827.5 103.574 825.574 105.5 823.199 105.5L713.801 105.5C711.426 105.5 709.5 103.574 709.5 101.199Z" stroke="#0070C0" stroke-width="1.33333" stroke-miterlimit="8" fill="#FFFFFF" fill-rule="evenodd"/><text font-family="Calibri,Calibri_MSFontService,sans-serif" font-weight="700" font-size="11" transform="translate(734.378 76)">Prof Libby John<tspan font-weight="400" font-size="8" x="-13.1666" y="10">Pro Vice Chancellor /Head of </tspan><tspan font-weight="400" font-size="8" x="4.25336" y="20">College of Science</tspan></text><path d="M828.5 80.5001 863.464 80.5002" stroke="#7F7F7F" stroke-width="0.666667" stroke-miterlimit="8" stroke-dasharray="2.66667 2" fill="none" fill-rule="evenodd"/><text font-family="Calibri,Calibri_MSFontService,sans-serif" font-weight="400" font-size="11" transform="translate(660.01 76)">Monthly <tspan x="-1.83331" y="13">Meetings</tspan></text><path d="M709.5 115.801C709.5 113.426 711.426 111.5 713.801 111.5L823.199 111.5C825.574 111.5 827.5 113.426 827.5 115.801L827.5 153.199C827.5 155.574 825.574 157.5 823.199 157.5L713.801 157.5C711.426 157.5 709.5 155.574 709.5 153.199Z" stroke="#0070C0" stroke-width="1.33333" stroke-miterlimit="8" fill="#FFFFFF" fill-rule="evenodd"/><text font-family="Calibri,Calibri_MSFontService,sans-serif" font-weight="700" font-size="11" transform="translate(730.045 126)">Dr Andy Evenden<tspan font-weight="400" font-size="9" x="9" y="12">CoS Director of </tspan><tspan font-weight="400" font-size="9" x="-7" y="23">Education and Students</tspan></text><path d="M709.5 169.707C709.5 167.384 711.384 165.5 713.707 165.5L823.293 165.5C825.616 165.5 827.5 167.384 827.5 169.707L827.5 206.293C827.5 208.616 825.616 210.5 823.293 210.5L713.707 210.5C711.384 210.5 709.5 208.616 709.5 206.293Z" stroke="#0070C0" stroke-width="1.33333" stroke-miterlimit="8" fill="#FFFFFF" fill-rule="evenodd"/><text font-family="Calibri,Calibri_MSFontService,sans-serif" font-weight="700" font-size="11" transform="translate(744.298 178)">Mark Page<tspan font-weight="400" x="-8.91998" y="13">CoS Director of </tspan><tspan font-weight="400" x="-0.5" y="26">Operations</tspan></text><path d="M826.5 138.5 861.464 138.5" stroke="#7F7F7F" stroke-width="0.666667" stroke-miterlimit="8" stroke-dasharray="2.66667 2" fill="none" fill-rule="evenodd"/><path d="M828.5 187.5 863.464 187.5" stroke="#7F7F7F" stroke-width="0.666667" stroke-miterlimit="8" stroke-dasharray="2.66667 2" fill="none" fill-rule="evenodd"/><path d="M10.5001 593.204C10.5001 590.054 13.0536 587.5 16.2036 587.5L138.797 587.5C141.947 587.5 144.5 590.054 144.5 593.204L144.5 642.797C144.5 645.947 141.947 648.5 138.797 648.5L16.2036 648.5C13.0536 648.5 10.5001 645.947 10.5001 642.797Z" stroke="#BF9000" stroke-width="1.33333" stroke-miterlimit="8" fill="#FFFFFF" fill-rule="evenodd"/><text font-family="Calibri,Calibri_MSFontService,sans-serif" font-weight="700" font-size="11" transform="translate(68.7097 614)">TBC<tspan font-weight="400" x="-30.42" y="13">Course Rep </tspan><tspan font-weight="400" x="21.2467" y="13">–</tspan><tspan font-weight="400" x="28.9133" y="13">MSc</tspan><tspan font-weight="400" x="592.046" y="-484">Monthly </tspan><tspan font-weight="400" x="590.212" y="-471">Meetings</tspan></text><path d="M789.5 593.204C789.5 590.054 792.054 587.5 795.204 587.5L918.797 587.5C921.947 587.5 924.5 590.054 924.5 593.204L924.5 642.797C924.5 645.946 921.947 648.5 918.797 648.5L795.204 648.5C792.054 648.5 789.5 645.946 789.5 642.797Z" stroke="#BF9000" stroke-width="1.33333" stroke-miterlimit="8" fill="#FFFFFF" fill-rule="evenodd"/><text font-family="Calibri,Calibri_MSFontService,sans-serif" font-weight="700" font-size="11" transform="translate(847.95 614)">TBC<tspan font-weight="400" x="-26.42" y="13">Course Rep </tspan><tspan font-weight="400" x="25.2466" y="13">–</tspan><tspan font-weight="400" x="32.9133" y="13">Y1</tspan></text><path d="M0 0 0.000104987 37.2414" stroke="#7F7F7F" stroke-width="0.666667" stroke-miterlimit="8" stroke-dasharray="2.66667 2" fill="none" fill-rule="evenodd" transform="matrix(-1 -8.74228e-08 -8.74228e-08 1 72.5002 551.5)"/><path d="M501.5 551.5 501.5 588.741" stroke="#7F7F7F" stroke-width="0.666667" stroke-miterlimit="8" stroke-dasharray="2.66667 2" fill="none" fill-rule="evenodd"/><path d="M599.5 551.5 599.5 588.741" stroke="#7F7F7F" stroke-width="0.666667" stroke-miterlimit="8" stroke-dasharray="2.66667 2" fill="none" fill-rule="evenodd"/><text font-family="Calibri,Calibri_MSFontService,sans-serif" font-weight="400" font-size="11" transform="translate(185.145 92)">Monthly <tspan x="-1.83334" y="13">Meetings</tspan></text><path d="M802.5 244.707C802.5 242.384 804.384 240.5 806.707 240.5L916.293 240.5C918.616 240.5 920.5 242.384 920.5 244.707L920.5 281.293C920.5 283.616 918.616 285.5 916.293 285.5L806.707 285.5C804.384 285.5 802.5 283.616 802.5 281.293Z" stroke="#0070C0" stroke-width="1.33333" stroke-miterlimit="8" fill="#FFFFFF" fill-rule="evenodd"/><text font-family="Calibri,Calibri_MSFontService,sans-serif" font-weight="700" font-size="11" transform="translate(818.602 253)">Dr Salah Al<tspan x="48.3333" y="0">-</tspan><tspan x="51.6667" y="0">Majeed</tspan><tspan font-weight="400" x="-3" y="13">SoCS Deputy Head of </tspan><tspan font-weight="400" x="28.2466" y="26">School</tspan><tspan font-weight="400" x="-99.6409" y="172">Weekly </tspan><tspan font-weight="400" x="-103.808" y="185">Meetings</tspan></text></g></svg>