<?xml version="1.0" encoding="utf-8"?>
<!-- Generator: Adobe Illustrator 24.2.1, SVG Export Plug-In . SVG Version: 6.00 Build 0)  -->
<svg version="1.1" id="Layer_1" xmlns="http://www.w3.org/2000/svg" xmlns:xlink="http://www.w3.org/1999/xlink" x="0px" y="0px"
	 viewBox="0 0 4000 4000" style="enable-background:new 0 0 4000 4000;" xml:space="preserve">
<style type="text/css">
	.st0{fill:#5059C9;}
	.st1{fill:#7B83EB;}
	.st2{opacity:0.1;enable-background:new    ;}
	.st3{opacity:0.2;enable-background:new    ;}
	.st4{fill:url(#SVGID_1_);}
	.st5{fill:#FFFFFF;}
</style>
<path class="st0" d="M2440.2,1740.8h575.7c54.4,0,98.5,44.1,98.5,98.5l0,0v524.4c0,199.9-162.1,362-362,362l0,0h-1.7
	c-199.9,0-362-162-362-361.9c0,0,0,0,0-0.1v-571.4C2388.8,1763.9,2411.8,1740.8,2440.2,1740.8L2440.2,1740.8z"/>
<circle class="st0" cx="2829.3" cy="1403.9" r="233.3"/>
<circle class="st1" cx="2103.7" cy="1300.3" r="336.9"/>
<path class="st1" d="M2552.9,1740.8h-950.3c-53.7,1.3-96.3,45.9-95,99.7v598.1c-7.5,322.5,247.7,590.2,570.2,598.1
	c322.5-7.9,577.7-275.5,570.2-598.1v-598.1C2649.2,1786.8,2606.6,1742.2,2552.9,1740.8z"/>
<path class="st2" d="M2129.6,1740.8V2579c-0.3,38.4-23.5,73-59.1,87.6c-11.3,4.8-23.5,7.3-35.8,7.3h-481.5
	c-6.7-17.1-13-34.2-18.1-51.8c-18.1-59.5-27.4-121.3-27.5-183.5v-598.2c-1.2-53.7,41.2-98.2,94.9-99.5H2129.6z"/>
<path class="st3" d="M2077.8,1740.8v890c0,12.3-2.5,24.4-7.3,35.8c-14.6,35.5-49.2,58.8-87.6,59.1h-405.3
	c-8.8-17.1-17.1-34.2-24.4-51.8c-7.3-17.6-13-34.2-18.1-51.8c-18.1-59.5-27.4-121.3-27.5-183.5v-598.2
	c-1.2-53.7,41.2-98.2,94.9-99.5H2077.8z"/>
<path class="st3" d="M2077.8,1740.8v786.3c-0.4,52.2-42.6,94.5-94.9,94.9h-447.8c-18.1-59.5-27.4-121.3-27.5-183.5v-598.2
	c-1.2-53.7,41.2-98.2,94.9-99.5H2077.8z"/>
<path class="st3" d="M2025.9,1740.8v786.3c-0.4,52.2-42.6,94.5-94.9,94.9h-396c-18.1-59.5-27.4-121.3-27.5-183.5v-598.2
	c-1.2-53.7,41.2-98.2,94.9-99.5H2025.9z"/>
<path class="st2" d="M2129.6,1472.9v163.3c-8.8,0.5-17.1,1-25.9,1s-17.1-0.5-25.9-1c-17.5-1.2-34.8-3.9-51.8-8.3
	c-105-24.9-191.7-98.5-233.3-198c-7.2-16.7-12.7-34.1-16.6-51.8h258.6C2087,1378.2,2129.4,1420.6,2129.6,1472.9z"/>
<path class="st3" d="M2077.8,1524.7v111.4c-17.5-1.2-34.8-3.9-51.8-8.3c-105-24.9-191.7-98.5-233.3-198h190.2
	C2035.2,1430,2077.6,1472.4,2077.8,1524.7z"/>
<path class="st3" d="M2077.8,1524.7v111.4c-17.5-1.2-34.8-3.9-51.8-8.3c-105-24.9-191.7-98.5-233.3-198h190.2
	C2035.2,1430,2077.6,1472.4,2077.8,1524.7z"/>
<path class="st3" d="M2025.9,1524.7v103.1c-105-24.9-191.7-98.5-233.3-198h138.4C1983.4,1430,2025.7,1472.4,2025.9,1524.7z"/>
<linearGradient id="SVGID_1_" gradientUnits="userSpaceOnUse" x1="1083.6823" y1="360.2611" x2="1827.8168" y2="1649.0715" gradientTransform="matrix(1 0 0 1 0 995.3333)">
	<stop  offset="0" style="stop-color:#5A62C3"/>
	<stop  offset="0.5" style="stop-color:#4D55BD"/>
	<stop  offset="1" style="stop-color:#3940AB"/>
</linearGradient>
<path class="st4" d="M980.6,1429.8h950.3c52.5,0,95,42.5,95,95v950.3c0,52.5-42.5,95-95,95H980.6c-52.5,0-95-42.5-95-95v-950.3
	C885.6,1472.4,928.1,1429.8,980.6,1429.8z"/>
<path class="st5" d="M1705.8,1791.5h-190v517.3h-121v-517.3h-189.1v-100.3h500.1V1791.5z"/>
</svg>
